<svg id="Layer_1" data-name="Layer 1" xmlns="http://www.w3.org/2000/svg" xmlns:xlink="http://www.w3.org/1999/xlink" viewBox="0 0 1024 1024">
  <defs>
    <style>
      .cls-1 {
        clip-path: url(#clippath);
      }

      .cls-2 {
        fill: none;
      }

      .cls-2, .cls-3, .cls-4, .cls-5 {
        stroke-width: 0px;
      }

      .cls-3 {
        fill: #000;
      }

      .cls-4 {
        fill: #c27aff;
      }

      .cls-5 {
        fill: #fff;
      }
    </style>
    <clipPath id="clippath">
      <rect class="cls-2" x="0" y="0" width="1024" height="1024"/>
    </clipPath>
  </defs>
  <g class="cls-1">
    <g>
      <path class="cls-3" d="M895.47.7H128.53C57.97.7.71,57.96.71,128.52v766.95c0,70.56,57.25,127.83,127.82,127.83h766.93c70.57,0,127.82-57.26,127.82-127.83V128.52c0-70.56-57.25-127.83-127.82-127.83ZM537.56,51.83h191.75v191.74h-191.75V51.83ZM51.82,128.52c0-42.25,34.46-76.7,76.71-76.7h357.91v191.74H51.82v-115.04ZM51.82,294.69h677.49v191.74H51.82v-191.74ZM486.44,537.56v191.74h-191.75v-191.74h191.75ZM243.58,972.17h-115.04c-42.25,0-76.71-34.45-76.71-76.7v-115.04h191.75v191.74ZM243.58,729.3H51.82v-191.74h191.75v191.74ZM972.18,895.47c0,42.25-34.46,76.7-76.71,76.7H294.69v-191.74h677.49v115.04ZM972.18,729.3h-434.62v-191.74h434.62v191.74ZM972.18,486.43h-191.75v-191.74h191.75v191.74ZM972.18,243.56h-191.75V51.83h115.04c42.25,0,76.71,34.44,76.71,76.7v115.04Z"/>
      <path class="cls-5" d="M243.58,780.43v191.74h-115.04c-42.25,0-76.71-34.44-76.71-76.69v-115.04h191.75Z"/>
      <path class="cls-5" d="M486.44,537.56h-191.75v191.74h191.75v-191.74Z"/>
      <path class="cls-5" d="M972.18,294.7h-191.75v191.74h191.75v-191.74Z"/>
      <path class="cls-5" d="M729.31,51.83h-191.75v191.74h191.75V51.83Z"/>
      <path class="cls-4" d="M972.18,128.52v115.04h-191.75V51.83h115.04c42.25,0,76.71,34.44,76.71,76.7Z"/>
      <path class="cls-4" d="M243.58,537.56H51.82v191.74h191.75v-191.74Z"/>
      <path class="cls-4" d="M972.18,780.43v115.04c0,42.25-34.46,76.69-76.71,76.69H294.69v-191.74h677.49Z"/>
      <path class="cls-4" d="M972.18,537.56h-434.62v191.74h434.62v-191.74Z"/>
      <path class="cls-4" d="M729.31,294.7H51.82v191.74h677.49v-191.74Z"/>
      <path class="cls-4" d="M486.44,51.83v191.74H51.82v-115.04c0-42.25,34.46-76.7,76.71-76.7h357.91Z"/>
    </g>
  </g>
</svg>