<?xml version="1.0" encoding="UTF-8"?>
<svg id="Layer_1" data-name="Layer 1" xmlns="http://www.w3.org/2000/svg" viewBox="0 0 1024 1024">
  <defs>
    <style>
      .cls-1 {
        fill: #fcc800;
      }

      .cls-1, .cls-2, .cls-3, .cls-4, .cls-5 {
        stroke-width: 0px;
      }

      .cls-2 {
        fill: #05df72;
      }

      .cls-3 {
        fill: #000;
      }

      .cls-4 {
        fill: #fff;
      }

      .cls-5 {
        fill: #05df72;
      }
    </style>
  </defs>
  <path class="cls-5" d="M699.79,347.83h-.22v.2h.22v-.2Z"/>
  <path class="cls-2" d="M699.57,374v610.23h221.45c33.21,0,60.28-26.69,60.28-59.58V375.38l-281.73-1.38Z"/>
  <path class="cls-4" d="M971.46,108.63v214.89l-271.54-1.21,1.2-271.88h212.15c32.01,0,58.19,26.17,58.19,58.2Z"/>
  <path class="cls-2" d="M663.42,686.16v297.71h-294.96v-299.09l294.96,1.38Z"/>
  <path class="cls-1" d="M667.56,354.86l-1.56,308.74-308.36-1.72,1.38-308.22,308.54,1.2Z"/>
  <path class="cls-4" d="M649.48,50.43l-1.2,271.54-271.85-1.04V50.43h273.05Z"/>
  <path class="cls-2" d="M346.78,683.22v302.19H108.81c-35.48,0-64.38-28.93-64.38-64.4v-237.79h302.35Z"/>
  <path class="cls-4" d="M324.56,374l-1.38,271.54H50.8v-271.54h273.76Z"/>
  <path class="cls-4" d="M324.74,50.43v271.88H50.8V108.63c0-32.03,26.18-58.2,58.37-58.2h215.57Z"/>
  <path class="cls-3" d="M914.17,0H110.01C49.42,0,0,49.25,0,109.86v804.12C0,974.58,49.42,1024,110.01,1024h804.15c60.59,0,109.83-49.42,109.83-110.03V109.86C1024,49.42,974.76,0,914.17,0ZM700.46,349.2h.18v.17h-.18v-.17ZM51.82,375.37h273.76l-1.38,271.54H51.82v-271.54ZM325.59,972.52H110.01c-32.19,0-58.37-26.17-58.37-58.37v-215.75h273.94v274.12ZM325.59,323.71H51.82V109.86c0-32.03,26.18-58.2,58.37-58.2h215.57v272.06h-.18ZM648.82,972.52h-271.54v-275.33l271.54,1.38v273.95ZM647.44,646.74l-271.54-1.38,1.2-271.54,271.72,1.03-1.38,271.89ZM649.13,323.37l-271.85-1.03V51.66h273.1l-1.25,271.71ZM972.35,914.14c0,32.2-26.18,58.37-58.19,58.37h-213.7v-274.12h271.89v215.75ZM972.35,646.74h-273.1l1.2-271.54,271.89,1.2v270.34ZM972.35,324.92l-271.54-1.21,1.2-271.88h212.15c32.01,0,58.19,26.17,58.19,58.2v214.89Z"/>
</svg>